<svg width="800" height="600" xmlns="http://www.w3.org/2000/svg">
 <!-- Created with Method Draw - http://github.com/duopixel/Method-Draw/ -->

 <g>
  <title>background</title>
  <rect fill="#fff" id="canvas_background" height="602" width="802" y="-1" x="-1"/>
  <g display="none" overflow="visible" y="0" x="0" height="100%" width="100%" id="canvasGrid">
   <rect fill="url(#gridpattern)" stroke-width="0" y="0" x="0" height="100%" width="100%"/>
  </g>
 </g>
 <g>
  <title>Layer 1</title>
  <g id="svg_11">
   <path id="svg_4" fill="#000000" d="m297.22397,296.65818l3.38852,-1.67104l5.35606,-8.02056l1.63963,-0.66826l1.74892,8.13189l-2.29551,0.33413l-1.74892,-3.34182l-1.31163,5.23566l5.79323,0l6.01194,1.55945l2.4048,-1.55945l4.04443,4.23301l1.74892,-7.79776l2.84197,2.89636l1.74892,-2.45076l2.84197,-0.77972l4.15372,-3.89888l0.65575,-1.89384l3.38855,0.55706l1.42105,1.89371l-2.51409,5.34699l6.23052,-3.23049l0,-1.55958l2.4048,-0.55693l2.62338,2.67356l2.62338,-3.23049l0,-2.22797l4.26302,-3.00769l1.74892,-2.5621l2.73268,0l4.80947,-9.91429l4.15372,-4.34445l1.53021,2.45071l-2.40467,3.1191l0.87446,2.00513l2.29538,0.44558l1.85821,8.24338l0,6.90644l3.27926,4.56727l1.63963,6.34964l-5.68393,-3.67608l-2.51409,-10.58265l-1.53034,0.33413l-0.21858,7.12937l-4.15372,6.79524l-1.20234,10.35986l2.84197,0.66839l1.20234,-1.44824l2.73268,3.11915l2.07693,9.35734l-0.21871,6.01538l-2.62326,0l-0.98388,-8.46615l-1.85821,2.5621l-4.0443,-0.89119l-3.27926,-2.7849l-3.71643,1.33678l0.21858,6.01538l-2.95126,0.77972l-4.37231,3.34195l-5.24677,-0.66839l-2.0768,-1.22532l-3.27926,0.55693l1.09304,1.33678l-2.62338,1.55958l-2.0768,-1.00265l-3.93514,1.78237l-6.01194,-3.00769l-2.29538,-5.34699l-1.96751,0.2228l-2.29551,-1.89371l-0.10929,-1.44824l-7.32357,-0.77972l-1.20246,4.01021l-4.59089,-2.11651l-2.29551,-3.89888l-4.91878,0l-0.54654,6.23818l-2.84201,0.89119l-1.421,5.68125l-1.09307,-1.00265l-4.59092,-11.91931l5.46538,-2.67356l-0.87446,-5.23566l-0.87446,-5.34699l2.40476,-3.45329l-0.76514,-2.11651l3.27922,-3.56462l1.31169,0.2228zm72.68954,13.14475l5.02806,7.57483l1.63963,-0.66839l-2.0768,-3.11903l-4.59089,-4.9014l0,1.11398zm-51.37464,-15.37272l0,-2.22797l3.82585,-2.7849l3.27913,-1.67091l-3.82572,0l-3.38855,2.00517l-2.0768,1.89371l0,2.7849l2.18609,0z"/>
   <path id="svg_5" fill="#000000" d="m402.34608,319.1521l6.05011,0l0,-6.61598l3.35153,0c5.08206,0 8.48722,-2.99237 8.48722,-7.79112c0,-4.74449 -3.31833,-7.87832 -8.26953,-7.87832l-9.61933,0l0,22.28542zm6.05011,-11.3168l0,-6.13719l2.13285,0c2.12187,0 3.39507,1.13173 3.39507,3.04689c0,1.90418 -1.2732,3.0903 -3.39507,3.0903l-2.13285,0z"/>
   <path id="svg_6" fill="#000000" d="m430.23589,319.45686c5.44033,0 8.66162,-3.48214 8.66162,-8.61821c0,-5.13607 -3.2213,-8.61821 -8.66162,-8.61821c-5.4416,0 -8.66162,3.48214 -8.66162,8.61821c0,5.13607 3.22002,8.61821 8.66162,8.61821zm0.04341,-4.43972c-1.61129,0 -2.56887,-1.59954 -2.56887,-4.22203c0,-2.62249 0.95758,-4.22203 2.56887,-4.22203c1.52319,0 2.48077,1.59954 2.48077,4.22203c0,2.62249 -0.95758,4.22203 -2.48077,4.22203z"/>
   <path id="svg_7" fill="#000000" d="m449.38748,319.45686c4.95132,0 7.98621,-2.84018 8.0526,-7.26892l-5.57183,0c-0.13023,1.75199 -1.0776,2.69859 -2.39395,2.69859c-1.57809,0 -2.61228,-1.34929 -2.61228,-4.09142c0,-2.74212 1.03419,-4.09154 2.61228,-4.09154c1.32784,0 2.23052,0.94673 2.39395,2.69871l5.57183,0c-0.0332,-4.35264 -3.13448,-7.18184 -8.0526,-7.18184c-5.4416,0 -8.66162,3.48214 -8.66162,8.61821c0,5.13607 3.22002,8.61821 8.66162,8.61821z"/>
   <path id="svg_8" fill="#000000" d="m467.96962,319.45686c4.95132,0 7.98749,-2.84018 8.0526,-7.26892l-5.57056,0c-0.13151,1.75199 -1.0776,2.69859 -2.39395,2.69859c-1.57809,0 -2.61228,-1.34929 -2.61228,-4.09142c0,-2.74212 1.03419,-4.09154 2.61228,-4.09154c1.32657,0 2.23052,0.94673 2.39395,2.69871l5.57056,0c-0.03192,-4.35264 -3.1332,-7.18184 -8.0526,-7.18184c-5.44033,0 -8.66162,3.48214 -8.66162,8.61821c0,5.13607 3.2213,8.61821 8.66162,8.61821z"/>
   <path id="svg_9" fill="#000000" d="m484.1591,311.49147l0,-9.05346l-5.65865,0l0,16.7141l5.65865,0l4.65767,-9.097l0,9.097l5.65865,0l0,-16.7141l-5.65865,0l-4.65767,9.05346z"/>
   <path id="svg_10" fill="#000000" d="m507.15249,319.1521l5.57056,0l0,-16.7141l-7.83427,0c-4.82109,0 -7.86747,2.43749 -7.83427,5.83255c-0.02171,1.90431 1.11973,3.48214 3.12299,4.41789l-3.2979,6.46366l5.52842,0l2.81784,-5.52779l1.92665,0l0,5.52779zm0,-9.14041l-2.13349,0c-1.5998,0 -2.33905,-0.78356 -2.30713,-1.52344c-0.03192,-0.69648 0.66392,-1.56698 2.1769,-1.56698l2.26372,0l0,3.09043z"/>
  </g>
 </g>
</svg>